<svg width="782" height="588" viewBox="0 0 782 588" fill="none" xmlns="http://www.w3.org/2000/svg">
<g clip-path="url(#clip0)">
<path opacity="0.18" d="M301.003 18.7998C218.221 49.1318 148.644 113.299 123.498 189.3C116.273 211.163 112.4 233.706 104.032 255.369C94.72 279.395 79.9496 301.838 69.7348 325.643C38.7693 397.219 54.3022 478.985 103.39 536.746C140.376 580.252 195.062 597.63 257.435 582.794C288.159 575.507 314.61 559.17 344.391 550.621C385.471 538.828 431.889 539.949 473.852 538.868C520.732 537.647 618.967 520.849 666.008 516.845C738.133 510.678 734.682 361.361 718.868 323.721C703.054 286.082 678.41 252.226 660.669 215.347C640.159 172.742 628.66 125.913 599.982 87.4922C556.073 28.6502 473.852 -3.38357 391.793 0.280294C360.755 1.76191 330.133 8.00845 301.003 18.7998Z" fill="#68E1FD"/>
<path d="M388.421 528.958C553.632 528.958 687.561 515.458 687.561 498.806C687.561 482.154 553.632 468.654 388.421 468.654C223.211 468.654 89.2815 482.154 89.2815 498.806C89.2815 515.458 223.211 528.958 388.421 528.958Z" fill="url(#paint0_linear)"/>
<path d="M469.919 391.393H356.573L335.962 303.82H449.309L469.919 391.393Z" fill="#68E1FD"/>
<path d="M463.216 391.393H356.573L335.962 303.82H442.606L463.216 391.393Z" fill="url(#paint1_linear)"/>
<path d="M620.071 388.209H215.853V495.643H620.071V388.209Z" fill="#68E1FD"/>
<path d="M620.071 388.209H215.853V495.643H620.071V388.209Z" fill="#041E42"/>
<path d="M553.404 76.9612H223.459C203.985 76.9612 188.199 92.7105 188.199 112.138V296.212C188.199 315.64 203.985 331.389 223.459 331.389H553.404C572.877 331.389 588.664 315.64 588.664 296.212V112.138C588.664 92.7105 572.877 76.9612 553.404 76.9612Z" fill="#68E1FD"/>
<path d="M588.664 280.916V296.192C588.653 305.519 584.935 314.46 578.325 321.055C571.714 327.649 562.752 331.359 553.404 331.369H223.439C214.087 331.369 205.119 327.663 198.506 321.066C191.893 314.469 188.179 305.522 188.179 296.192V280.916H588.664Z" fill="url(#paint2_linear)"/>
<path opacity="0.1" d="M541.724 249.443V348.467H455.811C453.432 348.467 451.15 347.525 449.468 345.846C447.785 344.168 446.84 341.892 446.84 339.518V258.392C446.84 256.019 447.785 253.743 449.468 252.064C451.15 250.386 453.432 249.443 455.811 249.443H541.724Z" fill="#020202"/>
<path d="M319.366 333.632H383.404C383.952 333.632 384.495 333.739 385.001 333.949C385.508 334.158 385.968 334.465 386.356 334.852C386.743 335.238 387.051 335.697 387.261 336.203C387.47 336.708 387.578 337.249 387.578 337.796C387.578 338.343 387.47 338.885 387.261 339.39C387.051 339.895 386.743 340.354 386.356 340.741C385.968 341.128 385.508 341.434 385.001 341.644C384.495 341.853 383.952 341.961 383.404 341.961H319.366C318.818 341.961 318.275 341.853 317.768 341.644C317.262 341.434 316.802 341.128 316.414 340.741C316.026 340.354 315.719 339.895 315.509 339.39C315.299 338.885 315.192 338.343 315.192 337.796C315.192 336.692 315.631 335.632 316.414 334.852C317.197 334.071 318.259 333.632 319.366 333.632Z" fill="#473F47"/>
<g filter="url(#filter0_d)">
<path d="M329.721 311.348L327.815 323.901L333.093 324.502L338.852 311.228L329.721 311.348Z" fill="#FCBDBA"/>
</g>
<g filter="url(#filter1_d)">
<path d="M334.678 322.66C334.422 322.455 334.198 322.212 334.016 321.939C333.746 322.108 333.443 322.214 333.127 322.252C332.812 322.291 332.492 322.259 332.19 322.16L329.541 321.719C329.075 321.663 328.621 321.535 328.196 321.339H328.015L327.453 322.42C326.492 324.352 325.926 326.455 325.788 328.607C330.801 329.792 335.953 330.283 341.1 330.068C341.512 330.125 341.931 330.071 342.316 329.913C342.7 329.754 343.035 329.497 343.287 329.167C343.386 328.943 343.437 328.701 343.437 328.456C343.437 328.212 343.386 327.97 343.287 327.746C343.045 327.238 342.703 326.784 342.283 326.409C341.862 326.035 341.372 325.747 340.839 325.563C339.474 325.003 338.09 324.522 336.825 323.882C336.057 323.573 335.335 323.163 334.678 322.66Z" fill="#041E42"/>
</g>
<g filter="url(#filter2_d)">
<path d="M365.122 315.172L363.476 327.766L368.774 328.246L374.253 314.872L365.122 315.172Z" fill="#FCBDBA"/>
</g>
<path opacity="0.1" d="M545.075 139.727V178.588C545.075 183.696 543.041 188.595 539.421 192.207C535.8 195.819 530.89 197.849 525.769 197.849H412.724L366.908 250.424V120.467H525.769C528.305 120.467 530.815 120.965 533.157 121.933C535.5 122.901 537.628 124.32 539.421 126.108C541.213 127.897 542.635 130.02 543.606 132.357C544.576 134.693 545.075 137.198 545.075 139.727Z" fill="#020202"/>
<path d="M521.114 103.93H393.278C382.615 103.93 373.972 112.553 373.972 123.19V162.051C373.972 172.688 382.615 181.311 393.278 181.311H521.114C531.776 181.311 540.419 172.688 540.419 162.051V123.19C540.419 112.553 531.776 103.93 521.114 103.93Z" fill="white"/>
<path opacity="0.1" d="M396.408 171.721C395.76 171.779 395.106 171.683 394.502 171.441C393.524 170.762 392.854 169.726 392.636 168.558C389.485 158.847 382.963 149.398 373.169 146.535C370.621 156.885 370.801 167.697 371.002 178.368C371.002 181.211 371.323 184.475 373.611 186.156C375.102 187.074 376.837 187.521 378.588 187.438C389.693 187.858 400.729 185.512 410.697 180.61C413.687 179.129 419.848 173.343 414.109 171.461C412.383 170.88 408.57 171.761 406.724 171.761L396.408 171.721Z" fill="#020202"/>
<g filter="url(#filter3_d)">
<path d="M329.26 223.976L337.126 267.602L329.26 314.532L342.003 315.513L360.566 262.657L354.285 220.773L329.26 223.976Z" fill="#041E42"/>
</g>
<g filter="url(#filter4_d)">
<path d="M373.249 220.773L387.398 278.854L375.959 318.836L364.62 318.256L366.205 284.14L346.237 228.981L373.249 220.773Z" fill="#041E42"/>
</g>
<path d="M412.202 172.602C413.904 171.61 415.725 170.837 417.621 170.3C417.918 170.167 418.244 170.109 418.569 170.129C418.894 170.15 419.209 170.25 419.487 170.42C419.782 170.695 419.973 171.062 420.029 171.461C420.323 172.743 420.218 174.084 419.728 175.305C421.865 176.487 424.11 177.465 426.431 178.228C426.915 178.31 427.377 178.492 427.788 178.76C428.199 179.029 428.55 179.379 428.819 179.79C428.963 180.218 428.975 180.68 428.853 181.115C428.731 181.551 428.482 181.94 428.137 182.232C427.435 182.813 426.589 183.193 425.688 183.333C419.868 184.695 410.396 183.333 409.011 176.386C408.71 174.864 409.272 174.604 410.476 173.743C411.119 173.323 411.701 172.962 412.202 172.602Z" fill="#FCBDBA"/>
<path d="M368.473 119.005C369.796 121.655 370.645 124.514 370.982 127.454C371.137 128.923 370.906 130.406 370.311 131.757C369.716 133.109 368.779 134.283 367.59 135.163C366.866 135.496 366.191 135.927 365.583 136.444C363.456 138.626 365.884 142.57 364.66 145.393C364.188 146.323 363.386 147.043 362.41 147.413C361.433 147.783 360.354 147.777 359.382 147.395C358.41 146.971 357.546 146.336 356.851 145.536C356.157 144.736 355.65 143.791 355.369 142.771C354.827 140.72 354.584 138.603 354.646 136.484L354.425 123.871C354.144 121.063 354.586 118.231 355.71 115.642C356.475 114.323 357.59 113.241 358.932 112.513C360.274 111.786 361.79 111.441 363.316 111.518C366.506 111.918 367.41 116.523 368.473 119.005Z" fill="#FCBDBA"/>
<path d="M412.584 181.992C412.584 181.992 388.341 203.595 386.595 203.595C384.849 203.595 374.072 190.02 374.072 190.02L373.249 220.853C370.256 222.614 367.137 224.154 363.918 225.458C358.375 227.982 352.329 229.215 346.237 229.062C334.457 228 329.26 224.056 329.26 224.056L336.524 151.64C336.524 151.64 350.251 141.79 354.947 143.291C358.305 143.892 361.744 143.892 365.102 143.291C371.885 142.39 378.808 151.64 378.808 151.64L387.819 181.171L408.951 173.683C410.327 174.54 411.411 175.792 412.059 177.275C412.707 178.759 412.89 180.403 412.584 181.992Z" fill="white"/>
<path d="M371.142 105.411C371.298 103.821 370.924 102.223 370.079 100.866C368.453 98.604 365.122 98.4038 362.392 99.0044C360.516 99.5178 358.699 100.229 356.974 101.127C355.705 101.648 354.321 101.828 352.96 101.647C349.358 101.583 345.865 102.886 343.187 105.291C339.494 108.775 338.631 113.92 338.25 118.745C337.849 124.211 340.257 128.756 343.889 132.92C346.96 136.544 352.559 140.108 356.553 135.523C358.333 133.192 359.146 130.267 358.82 127.354C357.864 127.257 356.962 126.862 356.242 126.227C355.522 125.591 355.02 124.746 354.807 123.811C354.669 123.223 354.697 122.609 354.889 122.036C355.08 121.463 355.427 120.955 355.89 120.567C356.175 120.396 356.49 120.283 356.819 120.233C357.148 120.184 357.483 120.2 357.805 120.28C358.127 120.36 358.431 120.502 358.698 120.699C358.965 120.896 359.191 121.144 359.362 121.428C359.477 121.608 359.565 121.803 359.623 122.009C360.202 120.847 360.627 119.616 360.887 118.345C361.349 117.124 362.894 116.062 363.898 116.883C364.48 117.344 364.821 118.365 365.563 118.205C365.81 118.112 366.025 117.953 366.185 117.744C367.646 116.342 368.879 114.721 369.838 112.939C370.736 110.837 371.207 108.577 371.223 106.292C371.146 106.005 371.119 105.707 371.142 105.411Z" fill="#FC682D"/>
<path d="M323.5 102.728C320.948 102.426 318.364 102.908 316.094 104.11C313.824 105.313 311.976 107.177 310.797 109.455C308.007 115.161 310.014 121.909 310.475 128.255C310.895 130.458 310.551 132.738 309.501 134.721C308.451 136.703 306.756 138.271 304.696 139.167C300.2 141.87 295.023 143.692 291.431 147.516C288.602 150.659 286.931 154.67 286.694 158.888C286.47 160.646 286.778 162.431 287.577 164.013C288.362 165.183 289.389 166.173 290.588 166.916C293.913 169.314 297.685 171.026 301.683 171.951C305.68 172.876 309.823 172.995 313.867 172.302C317.901 171.539 321.633 169.646 324.629 166.845C327.625 164.045 329.76 160.451 330.785 156.485C332.551 148.036 328.256 139.647 326.631 131.158C326.333 130.164 326.239 129.12 326.352 128.088C326.466 127.057 326.786 126.058 327.293 125.152C328.637 123.35 331.126 122.93 333.073 121.788C343.608 115.602 331.226 103.769 323.5 102.728Z" fill="#FC682D"/>
<path d="M338.511 110.897H338.33C336.125 110.897 334.337 112.681 334.337 114.881V115.061C334.337 117.262 336.125 119.046 338.33 119.046H338.511C340.717 119.046 342.505 117.262 342.505 115.061V114.881C342.505 112.681 340.717 110.897 338.511 110.897Z" fill="#68E1FD"/>
<g filter="url(#filter5_d)">
<path d="M370.3 326.384C370.048 326.174 369.825 325.932 369.637 325.663C369.372 325.84 369.071 325.957 368.755 326.005C368.44 326.054 368.118 326.033 367.811 325.944L365.162 325.543C364.692 325.492 364.232 325.37 363.797 325.183H363.617L363.075 326.284C362.169 328.242 361.651 330.356 361.55 332.511C366.586 333.577 371.742 333.967 376.882 333.672C377.297 333.722 377.717 333.66 378.099 333.49C378.481 333.321 378.809 333.052 379.049 332.711C379.148 332.487 379.199 332.245 379.199 332C379.199 331.755 379.148 331.513 379.049 331.289C378.8 330.786 378.451 330.338 378.023 329.973C377.596 329.609 377.098 329.334 376.561 329.167C375.176 328.627 373.771 328.186 372.427 327.545C371.667 327.258 370.951 326.867 370.3 326.384Z" fill="#041E42"/>
</g>
<g filter="url(#filter6_d)">
<path d="M371.423 341.961H363.296L356.813 359.459H323.319L329.801 341.961H321.674L264.659 495.643H272.787L278.426 480.447H311.86L306.221 495.643H314.349L319.988 480.447H320.229V479.806L370.942 343.142V495.643H379.069V341.961H371.423ZM354.606 365.425L346.157 388.209H312.643L321.092 365.425H354.606ZM301.967 417.06L310.415 394.296H343.97L335.481 417.06H301.967ZM333.273 423.066L324.824 445.83H291.31L299.819 422.946L333.273 423.066ZM280.634 474.6L289.083 451.816H322.597L314.148 474.6H280.634Z" fill="#68E1FD"/>
</g>
<path d="M578.007 238.792H455.811C450.857 238.792 446.84 242.799 446.84 247.741V328.847C446.84 333.789 450.857 337.796 455.811 337.796H578.007C582.962 337.796 586.978 333.789 586.978 328.847V247.741C586.978 242.799 582.962 238.792 578.007 238.792Z" fill="white"/>
<path d="M565.545 324.122H468.273V252.486H470.019V322.36H565.545V324.122Z" fill="#68E1FD"/>
<path d="M469.417 298.375L468.494 296.873L493.018 281.837L529.081 287.383L560.949 269.044L561.832 270.565L529.422 289.225L529.121 289.165L493.399 283.679L469.417 298.375Z" fill="#68E1FD"/>
<path d="M494.302 286.762C496.43 286.762 498.155 285.041 498.155 282.918C498.155 280.795 496.43 279.074 494.302 279.074C492.174 279.074 490.449 280.795 490.449 282.918C490.449 285.041 492.174 286.762 494.302 286.762Z" fill="#68E1FD"/>
<path d="M529.241 292.148C531.369 292.148 533.094 290.427 533.094 288.304C533.094 286.181 531.369 284.46 529.241 284.46C527.113 284.46 525.388 286.181 525.388 288.304C525.388 290.427 527.113 292.148 529.241 292.148Z" fill="#68E1FD"/>
<path d="M560.729 274.229C562.857 274.229 564.582 272.508 564.582 270.385C564.582 268.262 562.857 266.541 560.729 266.541C558.601 266.541 556.875 268.262 556.875 270.385C556.875 272.508 558.601 274.229 560.729 274.229Z" fill="#68E1FD"/>
<path opacity="0.28" d="M494.302 286.762C496.43 286.762 498.155 285.041 498.155 282.918C498.155 280.795 496.43 279.074 494.302 279.074C492.174 279.074 490.449 280.795 490.449 282.918C490.449 285.041 492.174 286.762 494.302 286.762Z" fill="#020202"/>
<path opacity="0.28" d="M529.241 292.148C531.369 292.148 533.094 290.427 533.094 288.304C533.094 286.181 531.369 284.46 529.241 284.46C527.113 284.46 525.388 286.181 525.388 288.304C525.388 290.427 527.113 292.148 529.241 292.148Z" fill="#020202"/>
<path opacity="0.28" d="M560.729 274.229C562.857 274.229 564.582 272.508 564.582 270.385C564.582 268.262 562.857 266.541 560.729 266.541C558.601 266.541 556.875 268.262 556.875 270.385C556.875 272.508 558.601 274.229 560.729 274.229Z" fill="#020202"/>
<g filter="url(#filter7_d)">
<path d="M574.335 362.622C574.335 362.622 546.46 415.178 541.242 431.695C536.024 448.213 536.506 496.884 536.506 496.884H551.678C551.678 496.884 551.678 447.772 558.12 439.503C564.562 431.235 600.464 389.03 600.464 389.03L574.335 362.622Z" fill="#00889A"/>
</g>
<g filter="url(#filter8_d)">
<path d="M571.244 369.009C571.244 369.009 588.142 437.081 596.892 452.317C605.642 467.553 629.563 495.002 629.563 495.002L642.447 488.115C642.447 488.115 609.314 444.749 611.16 432.056C613.007 419.362 617.703 370.791 617.703 370.791C617.703 370.791 594.363 358.158 571.244 369.009Z" fill="#00889A"/>
</g>
<path d="M628.54 271.186C628.54 271.186 642.006 278.053 636.989 294.571C631.971 311.088 616.097 348.287 617.823 359.299C619.549 370.31 617.703 370.671 617.703 370.671C617.703 370.671 582.282 383.404 571.244 368.949C571.244 368.949 592.316 294.571 596.791 285.281C601.267 275.991 614.05 265.7 628.54 271.186Z" fill="#68E1FD"/>
<path d="M621.556 307.905C620.247 311.969 618.412 315.846 616.097 319.437C614.93 321.585 613.53 323.599 611.923 325.443C607.368 330.328 600.544 332.19 594.444 334.873C593.352 335.3 592.341 335.91 591.453 336.675C590.545 337.703 589.825 338.882 589.326 340.159C586.015 347.386 581.56 354.714 574.295 357.977C577.285 346.585 580.315 335.193 583.727 323.942C584.124 321.855 584.97 319.88 586.207 318.151C587.444 316.423 589.042 314.983 590.891 313.931C598.517 308.345 606.083 302.659 613.79 297.173C616.418 295.291 619.168 293.169 621.395 296.573C623.342 299.556 622.459 304.781 621.556 307.905Z" fill="#041E42"/>
<path d="M603.494 242.155C602.732 242.936 601.748 243.737 601.748 244.818C601.877 245.631 602.216 246.397 602.732 247.04C605.06 251.045 602.932 256.651 605.742 260.274C606.789 261.514 608.189 262.408 609.756 262.837C611.349 263.052 612.891 263.547 614.311 264.299C615.388 265.356 616.001 266.796 616.017 268.303C616.178 270.105 615.856 271.907 616.017 273.709C615.977 274.312 616.092 274.916 616.352 275.463C616.612 276.01 617.008 276.481 617.502 276.832C618.001 277.051 618.543 277.153 619.087 277.132C622.216 277.273 625.35 277.031 628.419 276.411C628.861 276.354 629.281 276.189 629.643 275.931C629.999 275.517 630.229 275.01 630.306 274.469C631.63 268.463 632.995 262.457 634.319 256.45C635.097 254.291 636.071 252.207 637.229 250.224C638.286 247.227 638.642 244.029 638.273 240.874C637.931 238.512 637.126 236.239 635.905 234.187C634.904 232.25 633.443 230.587 631.65 229.342C630.328 228.565 628.903 227.978 627.416 227.6C622.278 226.018 614.251 223.896 609.796 228.301C606.143 231.985 607.347 238.331 603.494 242.155Z" fill="#FCBDBA"/>
<path d="M602.952 248.882C604.056 248.202 607.628 249.623 608.973 249.603C613.207 249.483 616.659 251.605 620.051 249.003C622.82 247 623.924 243.417 624.887 240.133C624.907 239.954 624.907 239.772 624.887 239.593C624.848 239.363 624.759 239.144 624.626 238.952C623.061 236.67 619.87 236.429 617.181 235.769C612.385 234.386 608.074 231.687 604.739 227.98C603.855 227.222 603.259 226.182 603.053 225.037C603.103 224.376 603.311 223.736 603.66 223.172C604.01 222.607 604.489 222.135 605.06 221.794C608.49 219.631 612.639 218.912 616.599 219.792C620.503 220.691 624.355 221.801 628.138 223.115C631.791 224.136 635.564 224.757 639.196 225.918C639.971 226.14 640.709 226.478 641.384 226.919C642.271 227.62 642.962 228.537 643.39 229.582C644.034 230.898 644.369 232.342 644.369 233.807C644.369 235.271 644.034 236.715 643.39 238.031C643.128 238.417 642.932 238.843 642.808 239.292C642.788 239.747 642.849 240.201 642.989 240.634C643.892 244.638 641.905 248.642 639.979 252.106L634.962 261.436C634.453 262.562 633.699 263.56 632.754 264.359C632.276 264.747 631.684 264.968 631.068 264.99C630.453 265.012 629.847 264.832 629.342 264.479C628.299 263.578 628.239 261.776 627.015 261.175C626.6 261.04 626.16 260.996 625.727 261.048C625.294 261.1 624.877 261.246 624.506 261.476C622.298 262.537 620.492 264.219 618.325 265.48C614.578 267.563 610.163 268.102 606.023 266.981C604.806 266.681 603.67 266.121 602.692 265.34C600.544 263.498 600.685 261.035 601.126 258.533C601.568 256.03 600.685 250.284 602.952 248.882Z" fill="#473F47"/>
<path d="M625.409 297.113C625.409 297.113 610.92 334.292 553.404 341.4L551.397 333.392C551.397 333.392 589.808 318.236 598.096 302.859C600.478 298.538 602.537 294.048 604.257 289.425C606.866 282.218 615.234 278.333 621.937 282.077C625.911 284.3 628.379 288.704 625.409 297.113Z" fill="#68E1FD"/>
<path d="M541.664 331.73C541.729 332.745 542.156 333.704 542.868 334.433C539.181 335.805 535.283 336.523 531.348 336.555C530.632 336.472 529.911 336.673 529.342 337.115C528.579 337.936 529.181 339.278 529.884 340.139C532.873 343.503 537.005 345.643 541.483 346.145C544.4 346.71 547.424 346.221 550.012 344.763C551.799 343.426 553.306 341.753 554.447 339.838C554.679 339.545 554.856 339.213 554.969 338.857C555.055 338.154 554.884 337.443 554.487 336.855C554.026 335.994 553.384 334.292 552.481 333.872C551.578 333.452 550.333 333.872 549.41 333.712C546.761 333.111 544.393 331.429 541.664 331.73Z" fill="#FCBDBA"/>
<path d="M653.123 495.983C653.413 496.191 653.65 496.464 653.813 496.781C653.976 497.098 654.061 497.449 654.061 497.805C654.061 498.161 653.976 498.512 653.813 498.829C653.65 499.146 653.413 499.419 653.123 499.627C646.895 506.321 639.435 511.759 631.149 515.644C628.861 516.705 625.71 517.466 624.145 515.483C622.579 513.501 624.245 510.498 625.57 508.216C627.358 505.152 628.454 501.736 628.781 498.205C628.783 496.996 629.021 495.799 629.483 494.682C631.108 491.698 639.096 488.675 642.407 488.675C646.802 488.635 650.434 492.94 653.123 495.983Z" fill="#68E1FD"/>
<path d="M556.695 507.655C556.852 507.976 556.93 508.331 556.919 508.688C556.909 509.045 556.812 509.394 556.636 509.706C556.46 510.017 556.211 510.281 555.91 510.475C555.609 510.669 555.265 510.787 554.909 510.819C546.175 513.542 536.997 514.561 527.877 513.822C525.348 513.602 522.237 512.701 521.856 510.198C521.475 507.695 524.425 505.914 526.713 504.612C529.769 502.832 532.409 500.423 534.459 497.545C535.053 496.49 535.859 495.57 536.827 494.842C539.717 493.04 548.186 494.301 551.076 495.963C554.889 498.145 555.892 503.671 556.695 507.655Z" fill="#68E1FD"/>
<path d="M179.77 489.496C179.684 492.05 180.157 494.591 181.155 496.944C182.413 499.136 184.31 500.896 186.593 501.989C191.485 504.532 197.172 505.092 202.467 503.551C203.186 503.407 203.832 503.018 204.294 502.45C204.567 501.97 204.68 501.416 204.615 500.868C204.213 497.954 202.731 495.297 200.461 493.42C198.198 491.583 196.264 489.376 194.741 486.893C192.313 481.968 194.119 468.874 184.867 471.037C177.141 472.779 179.549 484.05 179.77 489.496Z" fill="#FBB9AD"/>
<path d="M178.486 498.325C178.486 498.325 177.161 501.569 178.787 503.451C180.412 505.333 197.049 515.644 208.247 507.335C219.445 499.026 193.035 497.965 193.035 497.965L178.486 498.325Z" fill="#68E1FD"/>
<path d="M179.128 490.837C179.634 490.583 180.216 490.519 180.766 490.659C181.315 490.799 181.796 491.133 182.118 491.598C183.21 492.84 184.601 493.784 186.16 494.34C187.719 494.897 189.394 495.049 191.028 494.782C194.681 493.921 196.126 489.716 197.932 489.696C199.738 489.676 209.411 497.905 209.973 501.429C210.535 504.952 205.578 507.555 200.119 507.895C194.661 508.236 182.258 504.452 179.91 501.589C178.92 499.993 178.332 498.181 178.195 496.309C178.059 494.437 178.379 492.56 179.128 490.837Z" fill="white"/>
<path d="M148.042 494.521C147.935 497.076 148.408 499.623 149.427 501.969C150.685 504.157 152.583 505.91 154.865 506.995C159.749 509.538 165.431 510.098 170.719 508.556C171.446 508.42 172.101 508.029 172.565 507.455C172.83 506.979 172.942 506.434 172.887 505.893C172.481 502.981 170.999 500.325 168.732 498.446C166.486 496.599 164.554 494.402 163.013 491.939C160.585 487.034 162.391 473.92 153.139 476.082C145.413 477.844 147.821 489.136 148.042 494.521Z" fill="#FBB9AD"/>
<path d="M146.757 503.391C146.757 503.391 145.433 506.614 147.058 508.496C148.684 510.378 165.281 520.689 176.479 512.4C187.677 504.112 161.307 503.03 161.307 503.03L146.757 503.391Z" fill="#68E1FD"/>
<path d="M147.4 495.883C147.909 495.634 148.491 495.576 149.04 495.719C149.589 495.863 150.068 496.198 150.39 496.664C151.476 497.913 152.866 498.862 154.427 499.42C155.988 499.977 157.666 500.124 159.3 499.847C162.933 498.966 164.398 494.782 166.184 494.762C167.97 494.742 177.663 502.95 178.225 506.474C178.787 509.998 173.83 512.601 168.371 512.941C162.912 513.281 150.53 509.517 148.182 506.654C147.187 505.056 146.596 503.241 146.459 501.365C146.323 499.489 146.646 497.607 147.4 495.883Z" fill="white"/>
<path d="M141.399 358.258C141.399 358.258 139.693 453.098 146.717 484.731L164.598 486.933L169.475 357.317L141.399 358.258Z" fill="#041E42"/>
<path d="M190.787 348.007C190.787 348.007 205.016 399.061 194.801 481.207L176.92 483.41L165.662 352.452L190.787 348.007Z" fill="#041E42"/>
<g filter="url(#filter9_d)">
<path d="M217.539 307.144C217.338 310.588 216.234 313.551 213.244 314.552C212.988 314.637 212.727 314.704 212.461 314.752C206.983 315.853 199.778 311.689 194.781 308.045C192.686 306.542 190.676 304.924 188.761 303.2V266.501L215.532 293.77C216.92 298.091 217.597 302.607 217.539 307.144Z" fill="white"/>
</g>
<path d="M194.982 307.885C194.982 309.606 195.203 311.328 195.203 313.05C195.203 322.5 193.015 332.27 195.825 341.56C196.749 343.533 197.03 345.746 196.627 347.887C195.805 349.605 194.376 350.959 192.614 351.691C184.245 356.256 174.552 357.697 165.16 358.979C158.056 359.98 147.982 362.082 141.419 358.258C138.63 356.636 137.687 353.613 136.783 350.59C134.273 340.82 132.793 330.815 132.368 320.738C132.368 319.417 132.168 318.115 132.108 316.734C131.559 307.684 131.372 298.622 131.546 289.545C131.666 282.958 132.188 275.851 136.502 270.886C142.222 264.279 153.3 259.894 161.728 258.352C164.453 257.79 167.246 257.635 170.017 257.892C173.94 258.512 177.727 259.799 181.215 261.696C185.389 263.698 189.102 265.5 191.249 269.604C193.503 274.367 195.077 279.422 195.925 284.62C196.714 289.494 196.822 294.453 196.246 299.356C196.005 301.758 195.383 304.141 195.142 306.523C195.048 306.971 194.995 307.427 194.982 307.885Z" fill="white"/>
<path opacity="0.1" d="M156.27 361.481C153.52 362.282 147.179 359.759 145.072 359.479C143.807 359.259 142.663 358.618 141.399 358.338C135.118 356.776 134.375 339.158 133.773 334.413C132.148 321.899 129.639 308.926 129.458 296.372C129.176 291.527 129.74 286.67 131.124 282.017C131.829 279.693 133.037 277.553 134.664 275.746C136.29 273.94 138.295 272.513 140.536 271.566C148.564 268.683 150.952 294.01 152.055 299.256C153.159 304.501 153.3 313.791 156.772 317.995C160.243 322.2 167.187 322.981 171.723 320.858C174.162 319.637 176.191 317.733 177.564 315.379C178.936 313.025 179.591 310.324 179.449 307.604C179.175 305.721 179.021 303.821 178.987 301.918C178.989 300.963 179.264 300.028 179.779 299.224C180.295 298.419 181.029 297.777 181.897 297.374C182.716 297.169 183.575 297.196 184.38 297.45C185.184 297.705 185.902 298.177 186.453 298.815C187.522 300.128 188.289 301.659 188.7 303.3C189.739 306.73 190.411 310.26 190.707 313.831C191.51 322.3 190.226 330.989 192.252 339.258C193.159 341.829 193.594 344.541 193.537 347.266C193.076 349.521 191.85 351.548 190.066 353.006C188.283 354.465 186.05 355.266 183.743 355.275C181.43 355.187 179.172 354.542 177.163 353.395C175.154 352.248 173.452 350.633 172.204 348.688C171.803 347.992 171.264 347.385 170.619 346.906C169.899 346.545 169.094 346.386 168.291 346.445C164.458 346.445 158.959 347.326 157.715 351.611C156.832 354.674 158.959 357.617 157.293 360.78C157.048 361.13 156.685 361.379 156.27 361.481Z" fill="#020202"/>
<path d="M177.984 246.3C177.317 247.628 176.18 248.662 174.793 249.203C173.101 249.584 171.491 250.262 170.037 251.205C168.858 252.479 168.107 254.089 167.889 255.81L166.746 261.135L166.143 263.818C166.065 264.303 165.902 264.771 165.662 265.2C165.323 265.577 164.904 265.873 164.435 266.068C163.966 266.262 163.46 266.348 162.953 266.321C160.838 266.408 158.744 265.872 156.932 264.779C156.615 264.642 156.354 264.402 156.19 264.098C156.031 263.726 155.989 263.314 156.069 262.917L156.731 255.249C157.099 253.153 156.768 250.993 155.788 249.103C153.577 245.091 151.935 240.792 150.912 236.329C150.553 235.09 150.469 233.787 150.665 232.512C150.861 231.237 151.332 230.02 152.046 228.944C152.76 227.868 153.699 226.96 154.799 226.282C155.899 225.604 157.134 225.173 158.417 225.017C162.171 223.867 166.179 223.825 169.956 224.897C171.361 225.378 171.783 226.339 172.445 227.6C173.428 229.602 174.452 231.604 175.194 233.606C175.937 235.608 176.94 238.251 177.683 240.654C178.452 242.44 178.559 244.442 177.984 246.3Z" fill="#FBB9AD"/>
<g filter="url(#filter10_d)">
<path d="M234.798 284.92C235.038 284.52 235.5 284.12 235.881 284.36C236.037 284.515 236.148 284.708 236.202 284.92C236.422 285.305 236.741 285.624 237.125 285.846C237.51 286.068 237.946 286.183 238.39 286.182C239.253 286.182 240.156 286.042 241.039 286.042C242.193 286.078 243.322 286.381 244.339 286.926C245.356 287.471 246.232 288.245 246.899 289.185C248.225 291.087 248.965 293.335 249.026 295.652C249.262 297.734 248.687 299.827 247.421 301.498C245.414 303.84 241.781 303.9 238.671 303.8H235.821C235.148 303.888 234.466 303.715 233.917 303.317C233.368 302.918 232.994 302.324 232.871 301.658C231.707 298.835 229.6 296.012 231.045 293.169C232.49 290.326 233.072 286.923 234.798 284.92Z" fill="#FBB9AD"/>
</g>
<path d="M178.787 314.752V293.53C178.786 292.699 179.037 291.888 179.506 291.202C179.975 290.516 180.64 289.988 181.416 289.685L234.095 268.763C236.824 267.682 242.383 270.926 242.383 273.849L239.795 322.961C239.796 323.78 239.552 324.582 239.095 325.263C238.637 325.944 237.986 326.474 237.226 326.785L187.055 349.849C184.305 350.97 178.706 347.727 178.706 344.784L178.787 314.752Z" fill="#68E1FD"/>
<path d="M178.787 314.752V293.53C178.767 292.698 179.008 291.881 179.476 291.192C179.943 290.503 180.614 289.976 181.396 289.685L234.095 268.763C236.824 267.682 242.383 270.926 242.383 273.849L239.795 322.961C239.793 323.78 239.549 324.58 239.091 325.261C238.634 325.942 237.985 326.472 237.226 326.785L187.055 349.849C184.326 350.97 178.726 347.727 178.726 344.784L178.787 314.752Z" fill="url(#paint3_linear)"/>
<g filter="url(#filter11_d)">
<path d="M181.416 315.993V294.771C181.414 293.938 181.664 293.123 182.133 292.434C182.601 291.745 183.268 291.213 184.045 290.907L236.724 270.005C237.354 269.753 238.037 269.659 238.712 269.731C239.387 269.803 240.034 270.039 240.596 270.418C241.158 270.798 241.619 271.309 241.938 271.907C242.256 272.505 242.423 273.171 242.423 273.849V324.262C242.422 325.081 242.177 325.882 241.72 326.562C241.263 327.243 240.614 327.773 239.855 328.086L187.175 349.909C186.669 350.118 186.127 350.226 185.579 350.225C185.032 350.225 184.49 350.116 183.984 349.906C183.479 349.696 183.02 349.388 182.634 349C182.249 348.612 181.944 348.152 181.737 347.647C181.523 347.147 181.414 346.608 181.416 346.065V315.993Z" fill="#68E1FD"/>
</g>
<path d="M181.416 294.771L217.539 313.31L241.42 271.266C241.42 271.266 242.343 270.725 242.343 273.849V324.262L181.416 343.162V294.771Z" fill="url(#paint4_linear)"/>
<path d="M168.893 227.28C168.525 227.836 168.05 228.313 167.495 228.685C166.94 229.056 166.317 229.313 165.662 229.442C162.09 230.203 159.922 228.481 158.116 232.625C157.534 234.044 157.353 235.596 157.594 237.11C157.594 237.43 158.718 240.974 158.999 240.794C158.076 241.455 157.354 239.653 156.35 239.132C155.347 238.612 153.862 240.133 154.102 241.435C154.521 242.712 155.269 243.858 156.27 244.758C157.874 246.745 158.758 249.214 158.778 251.765C158.778 252.346 158.558 253.127 157.956 253.147C157.354 253.167 156.691 252.326 156.23 252.006C155.495 251.514 154.723 251.079 153.922 250.704C151.473 249.543 147.781 249.183 145.734 247.541C144.679 246.665 143.968 245.445 143.727 244.097C143.727 243.777 143.727 240.333 144.329 240.514C143.721 240.333 143.155 240.034 142.665 239.633C142.174 239.232 141.768 238.737 141.471 238.178C141.174 237.619 140.992 237.006 140.935 236.376C140.877 235.746 140.947 235.111 141.138 234.507C141.408 233.66 141.9 232.899 142.563 232.305C140.055 228.821 141.219 223.656 144.229 220.593C147.46 217.712 151.549 215.968 155.868 215.627C160.562 214.889 165.36 215.204 169.916 216.548C171.497 216.985 172.958 217.772 174.191 218.851C174.793 219.395 175.256 220.075 175.539 220.835C175.822 221.595 175.917 222.411 175.816 223.215C175.551 223.323 175.261 223.352 174.979 223.299C174.698 223.245 174.438 223.112 174.231 222.915C174.497 223.637 174.464 224.435 174.14 225.133C173.817 225.831 173.229 226.373 172.505 226.639C171.963 226.836 171.375 226.868 170.815 226.733C170.254 226.598 169.746 226.3 169.354 225.878C169.314 226.375 169.156 226.856 168.893 227.28Z" fill="#473F47"/>
<path d="M171.181 250.324L170.579 250.504C170.398 250.523 170.229 250.6 170.097 250.724C170.057 250.862 170.057 251.007 170.097 251.145C168.918 252.419 168.167 254.029 167.95 255.75L166.806 261.075C164.874 257.671 163.416 254.02 162.471 250.224C165.363 250.557 168.282 250.591 171.181 250.324Z" fill="#DC9F95"/>
<path d="M174.231 314.952C174.569 314.538 175.004 314.214 175.497 314.008C175.991 313.802 176.528 313.72 177.061 313.771C177.666 314.074 178.243 314.429 178.787 314.832C179.299 315.06 179.852 315.182 180.412 315.192C182.681 315.355 184.959 315.034 187.095 314.251C188.173 313.727 189.348 313.434 190.547 313.39C191.263 313.53 191.94 313.822 192.533 314.247C193.125 314.672 193.618 315.22 193.978 315.853C195.046 317.381 195.647 319.186 195.708 321.048C195.768 322.91 195.286 324.75 194.32 326.344C193.423 327.64 192.243 328.715 190.868 329.487C187.82 331.08 184.434 331.917 180.994 331.93C177.582 332.09 174.111 331.93 170.719 332.09C169.916 332.236 169.086 332.124 168.351 331.77C167.945 331.393 167.63 330.928 167.432 330.411C167.234 329.894 167.157 329.338 167.207 328.787C167.087 326.204 166.645 324.022 168.15 321.839C170.042 319.428 172.072 317.129 174.231 314.952Z" fill="#FBB9AD"/>
<path d="M136.543 270.906C136.543 270.906 98.8341 320.098 110.755 337.476C122.675 354.854 172.967 334.613 172.967 334.613L168.07 320.218C168.07 320.218 132.75 324.682 132.489 320.738C132.228 316.794 154.885 294.21 154.885 294.21C154.885 294.21 158.939 261.155 136.543 270.906Z" fill="white"/>
</g>
<defs>
<filter id="filter0_d" x="324.815" y="311.228" width="21.0377" height="23.274" filterUnits="userSpaceOnUse" color-interpolation-filters="sRGB">
<feFlood flood-opacity="0" result="BackgroundImageFix"/>
<feColorMatrix in="SourceAlpha" type="matrix" values="0 0 0 0 0 0 0 0 0 0 0 0 0 0 0 0 0 0 127 0"/>
<feOffset dx="2" dy="5"/>
<feGaussianBlur stdDeviation="2.5"/>
<feColorMatrix type="matrix" values="0 0 0 0 0 0 0 0 0 0 0 0 0 0 0 0 0 0 0.25 0"/>
<feBlend mode="normal" in2="BackgroundImageFix" result="effect1_dropShadow"/>
<feBlend mode="normal" in="SourceGraphic" in2="effect1_dropShadow" result="shape"/>
</filter>
<filter id="filter1_d" x="322.788" y="321.339" width="27.6497" height="18.7784" filterUnits="userSpaceOnUse" color-interpolation-filters="sRGB">
<feFlood flood-opacity="0" result="BackgroundImageFix"/>
<feColorMatrix in="SourceAlpha" type="matrix" values="0 0 0 0 0 0 0 0 0 0 0 0 0 0 0 0 0 0 127 0"/>
<feOffset dx="2" dy="5"/>
<feGaussianBlur stdDeviation="2.5"/>
<feColorMatrix type="matrix" values="0 0 0 0 0 0 0 0 0 0 0 0 0 0 0 0 0 0 0.25 0"/>
<feBlend mode="normal" in2="BackgroundImageFix" result="effect1_dropShadow"/>
<feBlend mode="normal" in="SourceGraphic" in2="effect1_dropShadow" result="shape"/>
</filter>
<filter id="filter2_d" x="360.476" y="314.872" width="20.7767" height="23.3741" filterUnits="userSpaceOnUse" color-interpolation-filters="sRGB">
<feFlood flood-opacity="0" result="BackgroundImageFix"/>
<feColorMatrix in="SourceAlpha" type="matrix" values="0 0 0 0 0 0 0 0 0 0 0 0 0 0 0 0 0 0 127 0"/>
<feOffset dx="2" dy="5"/>
<feGaussianBlur stdDeviation="2.5"/>
<feColorMatrix type="matrix" values="0 0 0 0 0 0 0 0 0 0 0 0 0 0 0 0 0 0 0.25 0"/>
<feBlend mode="normal" in2="BackgroundImageFix" result="effect1_dropShadow"/>
<feBlend mode="normal" in="SourceGraphic" in2="effect1_dropShadow" result="shape"/>
</filter>
<filter id="filter3_d" x="326.26" y="220.773" width="41.3067" height="104.74" filterUnits="userSpaceOnUse" color-interpolation-filters="sRGB">
<feFlood flood-opacity="0" result="BackgroundImageFix"/>
<feColorMatrix in="SourceAlpha" type="matrix" values="0 0 0 0 0 0 0 0 0 0 0 0 0 0 0 0 0 0 127 0"/>
<feOffset dx="2" dy="5"/>
<feGaussianBlur stdDeviation="2.5"/>
<feColorMatrix type="matrix" values="0 0 0 0 0 0 0 0 0 0 0 0 0 0 0 0 0 0 0.25 0"/>
<feBlend mode="normal" in2="BackgroundImageFix" result="effect1_dropShadow"/>
<feBlend mode="normal" in="SourceGraphic" in2="effect1_dropShadow" result="shape"/>
</filter>
<filter id="filter4_d" x="343.237" y="220.773" width="51.1603" height="108.063" filterUnits="userSpaceOnUse" color-interpolation-filters="sRGB">
<feFlood flood-opacity="0" result="BackgroundImageFix"/>
<feColorMatrix in="SourceAlpha" type="matrix" values="0 0 0 0 0 0 0 0 0 0 0 0 0 0 0 0 0 0 127 0"/>
<feOffset dx="2" dy="5"/>
<feGaussianBlur stdDeviation="2.5"/>
<feColorMatrix type="matrix" values="0 0 0 0 0 0 0 0 0 0 0 0 0 0 0 0 0 0 0.25 0"/>
<feBlend mode="normal" in2="BackgroundImageFix" result="effect1_dropShadow"/>
<feBlend mode="normal" in="SourceGraphic" in2="effect1_dropShadow" result="shape"/>
</filter>
<filter id="filter5_d" x="358.55" y="325.183" width="27.6497" height="18.5844" filterUnits="userSpaceOnUse" color-interpolation-filters="sRGB">
<feFlood flood-opacity="0" result="BackgroundImageFix"/>
<feColorMatrix in="SourceAlpha" type="matrix" values="0 0 0 0 0 0 0 0 0 0 0 0 0 0 0 0 0 0 127 0"/>
<feOffset dx="2" dy="5"/>
<feGaussianBlur stdDeviation="2.5"/>
<feColorMatrix type="matrix" values="0 0 0 0 0 0 0 0 0 0 0 0 0 0 0 0 0 0 0.25 0"/>
<feBlend mode="normal" in2="BackgroundImageFix" result="effect1_dropShadow"/>
<feBlend mode="normal" in="SourceGraphic" in2="effect1_dropShadow" result="shape"/>
</filter>
<filter id="filter6_d" x="244.659" y="325.961" width="154.41" height="193.682" filterUnits="userSpaceOnUse" color-interpolation-filters="sRGB">
<feFlood flood-opacity="0" result="BackgroundImageFix"/>
<feColorMatrix in="SourceAlpha" type="matrix" values="0 0 0 0 0 0 0 0 0 0 0 0 0 0 0 0 0 0 127 0"/>
<feOffset dy="4"/>
<feGaussianBlur stdDeviation="10"/>
<feColorMatrix type="matrix" values="0 0 0 0 0 0 0 0 0 0 0 0 0 0 0 0 0 0 0.25 0"/>
<feBlend mode="normal" in2="BackgroundImageFix" result="effect1_dropShadow"/>
<feBlend mode="normal" in="SourceGraphic" in2="effect1_dropShadow" result="shape"/>
</filter>
<filter id="filter7_d" x="516.494" y="342.622" width="123.97" height="194.262" filterUnits="userSpaceOnUse" color-interpolation-filters="sRGB">
<feFlood flood-opacity="0" result="BackgroundImageFix"/>
<feColorMatrix in="SourceAlpha" type="matrix" values="0 0 0 0 0 0 0 0 0 0 0 0 0 0 0 0 0 0 127 0"/>
<feOffset dx="10" dy="10"/>
<feGaussianBlur stdDeviation="15"/>
<feColorMatrix type="matrix" values="0 0 0 0 0 0 0 0 0 0 0 0 0 0 0 0 0 0 0.5 0"/>
<feBlend mode="normal" in2="BackgroundImageFix" result="effect1_dropShadow"/>
<feBlend mode="normal" in="SourceGraphic" in2="effect1_dropShadow" result="shape"/>
</filter>
<filter id="filter8_d" x="551.244" y="344.609" width="131.203" height="190.393" filterUnits="userSpaceOnUse" color-interpolation-filters="sRGB">
<feFlood flood-opacity="0" result="BackgroundImageFix"/>
<feColorMatrix in="SourceAlpha" type="matrix" values="0 0 0 0 0 0 0 0 0 0 0 0 0 0 0 0 0 0 127 0"/>
<feOffset dx="10" dy="10"/>
<feGaussianBlur stdDeviation="15"/>
<feColorMatrix type="matrix" values="0 0 0 0 0 0 0 0 0 0 0 0 0 0 0 0 0 0 0.5 0"/>
<feBlend mode="normal" in2="BackgroundImageFix" result="effect1_dropShadow"/>
<feBlend mode="normal" in="SourceGraphic" in2="effect1_dropShadow" result="shape"/>
</filter>
<filter id="filter9_d" x="163.761" y="236.501" width="88.7816" height="108.431" filterUnits="userSpaceOnUse" color-interpolation-filters="sRGB">
<feFlood flood-opacity="0" result="BackgroundImageFix"/>
<feColorMatrix in="SourceAlpha" type="matrix" values="0 0 0 0 0 0 0 0 0 0 0 0 0 0 0 0 0 0 127 0"/>
<feOffset dx="5"/>
<feGaussianBlur stdDeviation="15"/>
<feColorMatrix type="matrix" values="0 0 0 0 0 0 0 0 0 0 0 0 0 0 0 0 0 0 0.25 0"/>
<feBlend mode="normal" in2="BackgroundImageFix" result="effect1_dropShadow"/>
<feBlend mode="normal" in="SourceGraphic" in2="effect1_dropShadow" result="shape"/>
</filter>
<filter id="filter10_d" x="205.556" y="254.287" width="78.522" height="79.5401" filterUnits="userSpaceOnUse" color-interpolation-filters="sRGB">
<feFlood flood-opacity="0" result="BackgroundImageFix"/>
<feColorMatrix in="SourceAlpha" type="matrix" values="0 0 0 0 0 0 0 0 0 0 0 0 0 0 0 0 0 0 127 0"/>
<feOffset dx="5"/>
<feGaussianBlur stdDeviation="15"/>
<feColorMatrix type="matrix" values="0 0 0 0 0 0 0 0 0 0 0 0 0 0 0 0 0 0 0.25 0"/>
<feBlend mode="normal" in2="BackgroundImageFix" result="effect1_dropShadow"/>
<feBlend mode="normal" in="SourceGraphic" in2="effect1_dropShadow" result="shape"/>
</filter>
<filter id="filter11_d" x="156.416" y="239.707" width="121.008" height="140.518" filterUnits="userSpaceOnUse" color-interpolation-filters="sRGB">
<feFlood flood-opacity="0" result="BackgroundImageFix"/>
<feColorMatrix in="SourceAlpha" type="matrix" values="0 0 0 0 0 0 0 0 0 0 0 0 0 0 0 0 0 0 127 0"/>
<feOffset dx="5"/>
<feGaussianBlur stdDeviation="15"/>
<feColorMatrix type="matrix" values="0 0 0 0 0 0 0 0 0 0 0 0 0 0 0 0 0 0 0.25 0"/>
<feBlend mode="normal" in2="BackgroundImageFix" result="effect1_dropShadow"/>
<feBlend mode="normal" in="SourceGraphic" in2="effect1_dropShadow" result="shape"/>
</filter>
<linearGradient id="paint0_linear" x1="368.674" y1="331.369" x2="398.357" y2="584.212" gradientUnits="userSpaceOnUse">
<stop offset="0.01"/>
<stop offset="0.08" stop-opacity="0.69"/>
<stop offset="0.21" stop-opacity="0.32"/>
<stop offset="1" stop-opacity="0"/>
</linearGradient>
<linearGradient id="paint1_linear" x1="28384" y1="14279.5" x2="28698.2" y2="8017.27" gradientUnits="userSpaceOnUse">
<stop offset="0.01"/>
<stop offset="0.08" stop-opacity="0.69"/>
<stop offset="0.21" stop-opacity="0.32"/>
<stop offset="1" stop-opacity="0"/>
</linearGradient>
<linearGradient id="paint2_linear" x1="74277.9" y1="-11763.2" x2="74725.7" y2="-3849.57" gradientUnits="userSpaceOnUse">
<stop offset="0.01"/>
<stop offset="0.08" stop-opacity="0.69"/>
<stop offset="0.21" stop-opacity="0.32"/>
<stop offset="1" stop-opacity="0"/>
</linearGradient>
<linearGradient id="paint3_linear" x1="167.95" y1="261.876" x2="307.06" y2="417.546" gradientUnits="userSpaceOnUse">
<stop offset="0.01"/>
<stop offset="0.13" stop-opacity="0.69"/>
<stop offset="0.25" stop-opacity="0.32"/>
<stop offset="1" stop-opacity="0"/>
</linearGradient>
<linearGradient id="paint4_linear" x1="7736.45" y1="13874.2" x2="8633.01" y2="8842.13" gradientUnits="userSpaceOnUse">
<stop offset="0.01"/>
<stop offset="0.13" stop-opacity="0.69"/>
<stop offset="0.25" stop-opacity="0.32"/>
<stop offset="1" stop-opacity="0"/>
</linearGradient>
<clipPath id="clip0">
<rect width="782" height="588" fill="white"/>
</clipPath>
</defs>
</svg>
