<?xml version="1.0" encoding="utf-8"?>
<!-- Generator: Adobe Illustrator 24.0.2, SVG Export Plug-In . SVG Version: 6.00 Build 0)  -->
<svg version="1.2" baseProfile="tiny" id="Capa_1" xmlns="http://www.w3.org/2000/svg" xmlns:xlink="http://www.w3.org/1999/xlink"
	 x="0px" y="0px" viewBox="0 0 1240.2 1962" xml:space="preserve">
<g id="Capa_9_copia">
	<path fill="#FF4764" d="M1162,5.5L1162,5.5c-59.2-19.2-123.2,13.5-142.4,72.7L678,1132.5l0,0c-23.1,71.3-120.9,79.1-155,12.3v-0.1
		L213.7,539.1c-28.3-55.4-96.7-77.6-152.1-49.3l0,0C6.2,518.1-16,586.5,12.3,641.9L415.2,1431c0.9,1.7,1.8,3.4,2.8,5.1
		s1.9,3.3,2.8,5.1c26.3,52.4,72.4,92,128.2,110c104.3,33.8,215.4-14.8,263.2-109.8c0.7-1.4,1.5-2.8,2.3-4.2
		c3.7-6.6,6.7-13.5,9.1-20.6l411.1-1268.7C1253.8,88.7,1221.1,24.7,1162,5.5z"/>
	
		<ellipse transform="matrix(0.7071 -0.7071 0.7071 0.7071 -1105.4543 971.6044)" fill="#FF4764" cx="620.1" cy="1820.2" rx="141.8" ry="141.8"/>
</g>
</svg>
