<svg width="693" height="929" viewBox="0 0 693 929" fill="none" xmlns="http://www.w3.org/2000/svg">
<path d="M693 0.5V740.5L586 847.5C570 863.5 544 863.5 528 847.5C512 831.5 512 805.5 528 789.5L572 745.5C580.3 737.2 580.3 723.8 572 715.5C563.7 707.2 550.3 707.2 542 715.5L341.5 916C325.2 932.3 298.8 932.3 282.5 916C266.2 899.7 266.2 873.3 282.5 857L397.8 741.7C409.8 729.7 409.8 710.2 397.8 698.2C385.8 686.2 366.3 686.2 354.3 698.2L303 749.5C286.7 765.8 260.3 765.8 244 749.5C227.7 733.2 227.7 706.8 244 690.5L481 453.5C490.9 443.6 490.9 427.4 481 417.5C471.1 407.6 454.9 407.6 445 417.5L354.2 508.3C335.6 526.9 305.3 526.9 286.7 508.3C268.1 489.7 268.1 459.4 286.7 440.8L339 388.5C349.2 378.3 349.2 361.7 339 351.5C328.8 341.3 312.2 341.3 302 351.5L158.3 495.3C131.1 522.5 87 522.5 59.8 495.3C32.6 468.1 32.6 424 59.8 396.8L233.8 222.8C244.4 212.2 244.4 194.9 233.8 184.3C223.2 173.7 205.9 173.7 195.3 184.3L79 300.5C61 318.5 32 318.5 14 300.5C-4 282.5 -4 253.5 14 235.5L249 0.5H693Z" fill="url(#paint0_linear)"/>
<path d="M532.8 0.5H296.3C297.1 0.3 297.8 0.2 298.6 0H530.4C531.2 0.2 532 0.3 532.8 0.5Z" fill="white"/>
<path d="M693 0V0.5H326.1L325.4 0H693Z" fill="white"/>
<defs>
<linearGradient id="paint0_linear" x1="693" y1="130.21" x2="-127.749" y2="296.953" gradientUnits="userSpaceOnUse">
<stop stop-color="#041E42"/>
<stop offset="1" stop-color="#005686"/>
</linearGradient>
</defs>
</svg>
